# Exported from ProBuilder
# http://www.procore3d.com/probuilder
# 6/10/2019 9:58:01 AM

mtllib ./Ladder.mtl
o Ladder

g Cube (19)
v 13.82 -3.9101 -6.75
v 12.82 -3.9101 -6.75
v 13.82 -3.849936 -6.75
v 12.82 -3.849936 -6.75
v 12.82 -3.9101 -6.75
v 12.82 -3.9101 -7.75
v 12.82 -3.849936 -6.75
v 12.82 -3.849936 -7.75
v 12.82 -3.9101 -7.75
v 13.82 -3.9101 -7.75
v 12.82 -3.849936 -7.75
v 13.82 -3.849936 -7.75
v 14.64935 -3.460781 -7.75
v 14.64935 -3.460781 -6.75
v 14.64935 -3.400618 -7.75
v 14.64935 -3.400618 -6.75
v 13.82 -3.849936 -6.75
v 12.82 -3.849936 -6.75
v 13.82 -3.849936 -7.75
v 12.82 -3.849936 -7.75
v 13.82 -3.9101 -7.75
v 12.82 -3.9101 -7.75
v 13.82 -3.9101 -6.75
v 12.82 -3.9101 -6.75
v 13.82 -3.9101 -7.75
v 13.82 -3.9101 -6.75
v 14.64935 -3.460781 -7.75
v 14.64935 -3.460781 -6.75
v 13.82 -3.849936 -7.75
v 13.82 -3.9101 -7.75
v 14.64935 -3.400618 -7.75
v 14.64935 -3.460781 -7.75
v 13.82 -3.9101 -6.75
v 13.82 -3.849936 -6.75
v 14.64935 -3.460781 -6.75
v 14.64935 -3.400618 -6.75
v 13.82 -3.849936 -6.75
v 13.82 -3.849936 -7.75
v 14.64935 -3.400618 -6.75
v 14.64935 -3.400618 -7.75

vn 0 0 1
vn 0 0 1
vn 0 0 1
vn 0 0 1
vn -1 0 0
vn -1 0 0
vn -1 0 0
vn -1 0 0
vn 0 0 -1
vn 0 0 -1
vn 0 0 -1
vn 0 0 -1
vn 1 0 0
vn 1 0 0
vn 1 0 0
vn 1 0 0
vn 0 0.06016358 0
vn 0 0.06016358 0
vn 0 0.06016358 0
vn 0 0.06016358 0
vn 0 -0.06016358 0
vn 0 -0.06016358 0
vn 0 -0.06016358 0
vn 0 -0.06016358 0
vn 0.9938903 -0.006640363 0
vn 0.9938903 -0.006640363 0
vn 0.9938903 -0.006640363 0
vn 0.9938903 -0.006640363 0
vn 0 0 -1
vn 0 0 -1
vn 0 0 -0.9999999
vn 0 0 -1
vn 0 0 1
vn 0 0 1
vn 0 0 0.9999999
vn 0 0 1
vn -0.9938903 0.006640364 0
vn -0.9938903 0.006640364 0
vn -0.9938903 0.006640364 0
vn -0.9938903 0.006640364 0

vt 0 0
vt -1 0
vt 0 1
vt -1 1
vt 0 0
vt -1 0
vt 0 1
vt -1 1
vt 1 0
vt 0 0
vt 1 1
vt 0 1
vt 1 7.468286
vt 0 7.468286
vt 1 8.468285
vt 0 8.468285
vt 0 0
vt 1 0
vt 0 -1
vt 1 -1
vt 0 -1
vt -1 -1
vt 0 0
vt -1 0
vt 1 0
vt 0 0
vt 1 7.514195
vt 0 7.514195
vt 0 1
vt 0 0
vt -0.8293552 8.468285
vt -0.8293552 7.468286
vt 0 0
vt 0 1
vt 0.8293552 7.468286
vt 0.8293552 8.468285
vt 0 0.9938904
vt -1 0.9938904
vt 0 8.508084
vt -1 8.508084

g Cube (19)
usemtl Default_Prototype
f 3/3/3 4/4/4 2/2/2 1/1/1
f 7/7/7 8/8/8 6/6/6 5/5/5
f 11/11/11 12/12/12 10/10/10 9/9/9
f 15/15/15 16/16/16 14/14/14 13/13/13
f 19/19/19 20/20/20 18/18/18 17/17/17
f 23/23/23 24/24/24 22/22/22 21/21/21
f 27/27/27 28/28/28 26/26/26 25/25/25
f 31/31/31 32/32/32 30/30/30 29/29/29
f 35/35/35 36/36/36 34/34/34 33/33/33
f 39/39/39 40/40/40 38/38/38 37/37/37

